<svg t="1646126583203" class="icon" viewBox="0 0 1146 1024" version="1.1" xmlns="http://www.w3.org/2000/svg" p-id="1206" data-spm-anchor-id="a313x.7781069.0.i1" width="128" height="128"><path d="M561.833897 1024l-531.625705-218.063385a30.59301 30.59301 0 0 1-21.229111-43.612677 29.630966 29.630966 0 0 1 42.52236-21.742202l517.451584 218.063385 517.451585-218.063385a58.107478 58.107478 0 0 1 56.69648 21.742202 32.581235 32.581235 0 0 1-21.229112 43.612677l-531.625705 218.063385z m-7.054992-283.097582l-531.625704-218.063385a44.895403 44.895403 0 0 1-21.293249-50.795941 42.971314 42.971314 0 0 1 49.641489-21.806339l517.451584 218.063385 524.506577-210.559439a31.426782 31.426782 0 0 1 42.52236 21.806338 32.517099 32.517099 0 0 1-21.229112 43.548541l-531.625705 218.063385z m-14.17412-225.054241L44.446449 326.902668a71.447827 71.447827 0 0 1 0-130.709758L540.604785 7.247401C547.723913 0 554.778905 0 568.953025 0s21.293248 0 28.34824 7.247401l496.158337 188.688964a71.447827 71.447827 0 0 1 0 130.709758L597.301265 515.591632c-7.054992 7.247401-14.109984 7.247401-28.34824 7.247401s-21.229112 0.192409-28.34824-7.054992zM72.794689 261.611925l496.158336 188.881373 496.158337-188.881373-496.158337-188.945509z" p-id="1207" fill="#ffffff" data-spm-anchor-id="a313x.7781069.0.i0" class=""></path></svg>
