<svg t="1646129133649" class="icon" viewBox="0 0 1024 1024" version="1.1" xmlns="http://www.w3.org/2000/svg" p-id="35823" width="128" height="128"><path d="M280.4 705.8l-56.6 56.6c-10.4 10.4-10.4 27.4 0 37.8 10.4 10.4 27.4 10.4 37.8 0l56.6-56.6c10.4-10.4 10.4-27.4 0-37.8-10.4-10.4-27.4-10.4-37.8 0z m-16.2-403.5c10.5 10.5 27.6 10.5 38.1 0s10.5-27.6 0-38.1L245.1 207c-10.5-10.5-27.6-10.5-38.1 0s-10.5 27.6 0 38.1l57.2 57.2zM188.5 485h-80.9c-14.9 0-27 12-27 27s12.1 27 27 27h80.9c14.9 0 27-12 27-27 0-14.8-12.2-27-27-27zM512 215.5c14.9 0 27-12 27-27v-80.9c0-14.9-12-27-27-27s-27 12-27 27v80.9c0 14.9 12.2 27 27 27z m259.4 74.9l56.6-56.6c10.4-10.4 10.4-27.4 0-37.8-10.4-10.4-27.4-10.4-37.8 0l-56.6 56.6c-10.4 10.4-10.4 27.4 0 37.8 10.4 10.5 27.4 10.5 37.8 0z m145 194.6h-80.9c-14.9 0-27 12-27 27s12 27 27 27h80.9c14.9 0 27-12 27-27-0.1-14.8-12.1-27-27-27zM759.8 721.7c-10.5-10.5-27.6-10.5-38.1 0s-10.5 27.6 0 38.1l57.2 57.2c10.5 10.5 27.6 10.5 38.1 0s10.5-27.6 0-38.1l-57.2-57.2zM512 269.3c-134.1 0-242.8 108.7-242.8 242.8 0 134.1 108.7 242.8 242.8 242.8s242.8-108.7 242.8-242.8c0-134.1-108.7-242.8-242.8-242.8z m0 539.2c-14.9 0-27 12-27 27v80.9c0 14.9 12 27 27 27s27-12 27-27v-80.9c0-14.8-12.1-27-27-27z m0 0" p-id="35824" fill="#4ffd0c"></path></svg>
